<?xml version="1.0" encoding="UTF-8" standalone="no"?>
<!DOCTYPE svg PUBLIC "-//W3C//DTD SVG 1.1//EN"
 "http://www.w3.org/Graphics/SVG/1.1/DTD/svg11.dtd">
<!-- Generated by graphviz version 2.38.0 (20140413.2041)
 -->
<!-- Title: to_dot Pages: 1 -->
<svg width="457pt" height="260pt"
 viewBox="0.00 0.00 457.00 260.00" xmlns="http://www.w3.org/2000/svg" xmlns:xlink="http://www.w3.org/1999/xlink">
<g id="graph0" class="graph" transform="scale(1 1) rotate(0) translate(4 256)">
<title>to_dot</title>
<g id="a_graph0"><a xlink:href="http://www.tsdye.com">
</a>
</g>
<!-- 7 -->
<g id="node1" class="node"><title>7</title>
<g id="a_node1"><a xlink:href="http://www.tsdye.com" xlink:title="7">
<polygon fill="#e6550d" stroke="#000000" points="112,-36 58,-36 58,-0 112,-0 112,-36"/>
<text text-anchor="middle" x="85" y="-14.3" font-family="Helvetica,sans-Serif" font-size="14.00" fill="#000000">7</text>
</a>
</g>
</g>
<!-- 2 -->
<g id="node2" class="node"><title>2</title>
<g id="a_node2"><a xlink:href="http://www.tsdye.com" xlink:title="2">
<polygon fill="#fee6ce" stroke="#000000" points="136,-252 82,-252 82,-216 136,-216 136,-252"/>
<text text-anchor="middle" x="109" y="-230.3" font-family="Helvetica,sans-Serif" font-size="14.00" fill="#000000">2</text>
</a>
</g>
</g>
<!-- 3 -->
<g id="node6" class="node"><title>3</title>
<g id="a_node6"><a xlink:href="http://www.tsdye.com" xlink:title="3">
<polygon fill="#fdae6b" stroke="#000000" points="123,-180 69,-180 69,-144 123,-144 123,-180"/>
<text text-anchor="middle" x="96" y="-158.3" font-family="Helvetica,sans-Serif" font-size="14.00" fill="#000000">3</text>
</a>
</g>
</g>
<!-- 2&#45;&gt;3 -->
<g id="edge3" class="edge"><title>2&#45;&gt;3</title>
<g id="a_edge3"><a xlink:href="nil">
<path fill="none" stroke="#000000" d="M102.5,-215.831C102.5,-205 102.5,-191.288 102.5,-180.413"/>
</a>
</g>
</g>
<!-- 4 -->
<g id="node7" class="node"><title>4</title>
<g id="a_node7"><a xlink:href="http://www.tsdye.com" xlink:title="4">
<polygon fill="#fee6ce" stroke="#000000" points="195,-180 141,-180 141,-144 195,-144 195,-180"/>
<text text-anchor="middle" x="168" y="-158.3" font-family="Helvetica,sans-Serif" font-size="14.00" fill="#000000">4</text>
</a>
</g>
</g>
<!-- 2&#45;&gt;4 -->
<g id="edge4" class="edge"><title>2&#45;&gt;4</title>
<g id="a_edge4"><a xlink:href="nil">
<path fill="none" stroke="#000000" d="M129.5,-215.831C129.5,-194.502 129.5,-162 129.5,-162 129.5,-162 134.472,-162 140.843,-162"/>
</a>
</g>
</g>
<!-- 1 -->
<g id="node3" class="node"><title>1</title>
<g id="a_node3"><a xlink:href="http://www.tsdye.com" xlink:title="1">
<polygon fill="#fee6ce" stroke="#000000" points="54,-252 0,-252 0,-216 54,-216 54,-252"/>
<text text-anchor="middle" x="27" y="-230.3" font-family="Helvetica,sans-Serif" font-size="14.00" fill="#000000">1</text>
</a>
</g>
</g>
<!-- 5 -->
<g id="node4" class="node"><title>5</title>
<g id="a_node4"><a xlink:href="http://www.tsdye.com" xlink:title="5">
<polygon fill="#e6550d" stroke="#000000" points="76,-108 22,-108 22,-72 76,-72 76,-108"/>
<text text-anchor="middle" x="49" y="-86.3" font-family="Helvetica,sans-Serif" font-size="14.00" fill="#000000">5</text>
</a>
</g>
</g>
<!-- 1&#45;&gt;5 -->
<g id="edge1" class="edge"><title>1&#45;&gt;5</title>
<g id="a_edge1"><a xlink:href="nil">
<path fill="none" stroke="#000000" d="M32.6667,-215.762C32.6667,-188.063 32.6667,-135.7 32.6667,-108.09"/>
</a>
</g>
</g>
<!-- 6 -->
<g id="node5" class="node"><title>6</title>
<g id="a_node5"><a xlink:href="http://www.tsdye.com" xlink:title="6">
<polygon fill="#fee6ce" stroke="#000000" points="148,-108 94,-108 94,-72 148,-72 148,-108"/>
<text text-anchor="middle" x="121" y="-86.3" font-family="Helvetica,sans-Serif" font-size="14.00" fill="#000000">6</text>
</a>
</g>
</g>
<!-- 1&#45;&gt;6 -->
<g id="edge2" class="edge"><title>1&#45;&gt;6</title>
<g id="a_edge2"><a xlink:href="nil">
<path fill="none" stroke="#000000" d="M43.3333,-215.679C43.3333,-184.866 43.3333,-126 43.3333,-126 43.3333,-126 108.5,-126 108.5,-126 108.5,-126 108.5,-117.279 108.5,-108.422"/>
</a>
</g>
</g>
<!-- 5&#45;&gt;7 -->
<g id="edge7" class="edge"><title>5&#45;&gt;7</title>
<g id="a_edge7"><a xlink:href="nil">
<path fill="none" stroke="#000000" d="M67,-71.8314C67,-61 67,-47.2876 67,-36.4133"/>
</a>
</g>
</g>
<!-- 6&#45;&gt;7 -->
<g id="edge8" class="edge"><title>6&#45;&gt;7</title>
<g id="a_edge8"><a xlink:href="nil">
<path fill="none" stroke="#000000" d="M103,-71.8314C103,-61 103,-47.2876 103,-36.4133"/>
</a>
</g>
</g>
<!-- 3&#45;&gt;5 -->
<g id="edge5" class="edge"><title>3&#45;&gt;5</title>
<g id="a_edge5"><a xlink:href="nil">
<path fill="none" stroke="#000000" d="M72.5,-143.831C72.5,-133 72.5,-119.288 72.5,-108.413"/>
</a>
</g>
</g>
<!-- 4&#45;&gt;6 -->
<g id="edge6" class="edge"><title>4&#45;&gt;6</title>
<g id="a_edge6"><a xlink:href="nil">
<path fill="none" stroke="#000000" d="M144.5,-143.831C144.5,-133 144.5,-119.288 144.5,-108.413"/>
</a>
</g>
</g>
<!-- REACHABLE -->
<g id="node8" class="node"><title>REACHABLE</title>
<g id="a_node8"><a xlink:href="http://www.tsdye.com" xlink:title="Reachable">
<polygon fill="#e6550d" stroke="#000000" points="249.5,-108 166.5,-108 166.5,-72 249.5,-72 249.5,-108"/>
<text text-anchor="middle" x="208" y="-86.3" font-family="Helvetica,sans-Serif" font-size="14.00" fill="#000000">Reachable</text>
</a>
</g>
</g>
<!-- NOT&#45;REACHABLE -->
<g id="node9" class="node"><title>NOT&#45;REACHABLE</title>
<g id="a_node9"><a xlink:href="http://www.tsdye.com" xlink:title="Not Reachable">
<polygon fill="#fee6ce" stroke="#000000" points="376.5,-108 267.5,-108 267.5,-72 376.5,-72 376.5,-108"/>
<text text-anchor="middle" x="322" y="-86.3" font-family="Helvetica,sans-Serif" font-size="14.00" fill="#000000">Not Reachable</text>
</a>
</g>
</g>
<!-- ORIGIN -->
<g id="node10" class="node"><title>ORIGIN</title>
<g id="a_node10"><a xlink:href="http://www.tsdye.com" xlink:title="Origin">
<polygon fill="#fdae6b" stroke="#000000" points="449,-108 395,-108 395,-72 449,-72 449,-108"/>
<text text-anchor="middle" x="422" y="-86.3" font-family="Helvetica,sans-Serif" font-size="14.00" fill="#000000">Origin</text>
</a>
</g>
</g>
<!-- DEPOSIT -->
<g id="node11" class="node"><title>DEPOSIT</title>
<g id="a_node11"><a xlink:href="http://www.tsdye.com" xlink:title="Deposit">
<polygon fill="#ffffff" stroke="#000000" points="277,-180 213,-180 213,-144 277,-144 277,-180"/>
<text text-anchor="middle" x="245" y="-158.3" font-family="Helvetica,sans-Serif" font-size="14.00" fill="#000000">Deposit</text>
</a>
</g>
</g>
<!-- INTERFACE -->
<g id="node12" class="node"><title>INTERFACE</title>
<g id="a_node12"><a xlink:href="http://www.tsdye.com" xlink:title="Interface">
<polygon fill="#ffffff" stroke="#000000" points="397.973,-180 322.027,-180 294.979,-144 425.021,-144 397.973,-180"/>
<text text-anchor="middle" x="360" y="-158.3" font-family="Helvetica,sans-Serif" font-size="14.00" fill="#000000">Interface</text>
</a>
</g>
</g>
</g>
</svg>
