<?xml version="1.0" encoding="UTF-8" standalone="no"?>
<!DOCTYPE svg PUBLIC "-//W3C//DTD SVG 1.1//EN"
 "http://www.w3.org/Graphics/SVG/1.1/DTD/svg11.dtd">
<!-- Generated by graphviz version 2.38.0 (20140413.2041)
 -->
<!-- Title: to_dot Pages: 1 -->
<svg width="383pt" height="859pt"
 viewBox="0.00 0.00 382.91 859.00" xmlns="http://www.w3.org/2000/svg" xmlns:xlink="http://www.w3.org/1999/xlink">
<g id="graph0" class="graph" transform="scale(1 1) rotate(0) translate(4 855)">
<title>to_dot</title>
<g id="a_graph0"><a xlink:href="nil" xlink:title="Harris Figure 12, Nodes Filled by Chronological Distance">
<text text-anchor="middle" x="187.457" y="-835.8" font-family="Helvetica,sans-Serif" font-size="14.00" fill="#000000">Harris Figure 12, Nodes Filled by Chronological Distance</text>
</a>
</g>
<!-- 11 -->
<g id="node1" class="node"><title>11</title>
<polygon fill="#fb8072" stroke="#000000" points="46.5401,-540 12.286,-540 0.0867114,-504 58.7394,-504 46.5401,-540"/>
<text text-anchor="middle" x="29.413" y="-518.3" font-family="Helvetica,sans-Serif" font-size="14.00" fill="#000000">11</text>
</g>
<!-- 7 -->
<g id="node5" class="node"><title>7</title>
<polygon fill="#bebada" stroke="#000000" points="142.413,-324 88.413,-324 88.413,-288 142.413,-288 142.413,-324"/>
<text text-anchor="middle" x="115.413" y="-302.3" font-family="Helvetica,sans-Serif" font-size="14.00" fill="#000000">7</text>
</g>
<!-- 11&#45;&gt;7 -->
<g id="edge16" class="edge"><title>11&#45;&gt;7</title>
<path fill="none" stroke="#000000" d="M54.7429,-516C73.7161,-516 96.413,-516 96.413,-516 96.413,-516 96.413,-375.36 96.413,-324.269"/>
</g>
<!-- 14 -->
<g id="node2" class="node"><title>14</title>
<polygon fill="#fb8072" stroke="#000000" points="271.54,-540 237.286,-540 225.087,-504 283.739,-504 271.54,-540"/>
<text text-anchor="middle" x="254.413" y="-518.3" font-family="Helvetica,sans-Serif" font-size="14.00" fill="#000000">14</text>
</g>
<!-- 8 -->
<g id="node6" class="node"><title>8</title>
<polygon fill="#bebada" stroke="#000000" points="219.413,-324 165.413,-324 165.413,-288 219.413,-288 219.413,-324"/>
<text text-anchor="middle" x="192.413" y="-302.3" font-family="Helvetica,sans-Serif" font-size="14.00" fill="#000000">8</text>
</g>
<!-- 14&#45;&gt;8 -->
<g id="edge19" class="edge"><title>14&#45;&gt;8</title>
<path fill="none" stroke="#000000" d="M231.207,-503.955C231.207,-452.042 231.207,-306 231.207,-306 231.207,-306 226.196,-306 219.777,-306"/>
</g>
<!-- 15 -->
<g id="node3" class="node"><title>15</title>
<polygon fill="#bebada" stroke="#000000" points="132.54,-252 98.286,-252 86.0867,-216 144.739,-216 132.54,-252"/>
<text text-anchor="middle" x="115.413" y="-230.3" font-family="Helvetica,sans-Serif" font-size="14.00" fill="#000000">15</text>
</g>
<!-- 9 -->
<g id="node18" class="node"><title>9</title>
<polygon fill="#bebada" stroke="#000000" points="180.413,-180 126.413,-180 126.413,-144 180.413,-144 180.413,-180"/>
<text text-anchor="middle" x="153.413" y="-158.3" font-family="Helvetica,sans-Serif" font-size="14.00" fill="#000000">9</text>
</g>
<!-- 15&#45;&gt;9 -->
<g id="edge20" class="edge"><title>15&#45;&gt;9</title>
<path fill="none" stroke="#000000" d="M135.62,-215.831C135.62,-205 135.62,-191.288 135.62,-180.413"/>
</g>
<!-- 16 -->
<g id="node4" class="node"><title>16</title>
<polygon fill="#bebada" stroke="#000000" points="209.54,-252 175.286,-252 163.087,-216 221.739,-216 209.54,-252"/>
<text text-anchor="middle" x="192.413" y="-230.3" font-family="Helvetica,sans-Serif" font-size="14.00" fill="#000000">16</text>
</g>
<!-- 16&#45;&gt;9 -->
<g id="edge21" class="edge"><title>16&#45;&gt;9</title>
<path fill="none" stroke="#000000" d="M171.707,-215.831C171.707,-205 171.707,-191.288 171.707,-180.413"/>
</g>
<!-- 7&#45;&gt;15 -->
<g id="edge12" class="edge"><title>7&#45;&gt;15</title>
<path fill="none" stroke="#000000" d="M115.413,-287.831C115.413,-277 115.413,-263.288 115.413,-252.413"/>
</g>
<!-- 8&#45;&gt;16 -->
<g id="edge13" class="edge"><title>8&#45;&gt;16</title>
<path fill="none" stroke="#000000" d="M192.413,-287.831C192.413,-277 192.413,-263.288 192.413,-252.413"/>
</g>
<!-- 10 -->
<g id="node7" class="node"><title>10</title>
<polygon fill="#bebada" stroke="#000000" points="155.54,-828 121.286,-828 109.087,-792 167.739,-792 155.54,-828"/>
<text text-anchor="middle" x="138.413" y="-806.3" font-family="Helvetica,sans-Serif" font-size="14.00" fill="#000000">10</text>
</g>
<!-- 1 -->
<g id="node9" class="node"><title>1</title>
<polygon fill="#bebada" stroke="#000000" points="165.413,-756 111.413,-756 111.413,-720 165.413,-720 165.413,-756"/>
<text text-anchor="middle" x="138.413" y="-734.3" font-family="Helvetica,sans-Serif" font-size="14.00" fill="#000000">1</text>
</g>
<!-- 10&#45;&gt;1 -->
<g id="edge15" class="edge"><title>10&#45;&gt;1</title>
<path fill="none" stroke="#000000" d="M138.413,-791.831C138.413,-781 138.413,-767.288 138.413,-756.413"/>
</g>
<!-- NATURAL&#45;GROUND -->
<g id="node8" class="node"><title>NATURAL&#45;GROUND</title>
<polygon fill="#bebada" stroke="#000000" points="209.413,-36 97.413,-36 97.413,-0 209.413,-0 209.413,-36"/>
<text text-anchor="middle" x="153.413" y="-14.3" font-family="Helvetica,sans-Serif" font-size="14.00" fill="#000000">Natural Ground</text>
</g>
<!-- 1&#45;&gt;11 -->
<g id="edge2" class="edge"><title>1&#45;&gt;11</title>
<path fill="none" stroke="#000000" d="M111.246,-744C75.1817,-744 16,-744 16,-744 16,-744 16,-593.187 16,-540.167"/>
</g>
<!-- 1&#45;&gt;14 -->
<g id="edge5" class="edge"><title>1&#45;&gt;14</title>
<path fill="none" stroke="#000000" d="M165.647,-744C200.693,-744 257.12,-744 257.12,-744 257.12,-744 257.12,-593.187 257.12,-540.167"/>
</g>
<!-- 2 -->
<g id="node10" class="node"><title>2</title>
<polygon fill="#fb8072" stroke="#000000" points="219.181,-612 187.645,-612 176.413,-576 230.413,-576 219.181,-612"/>
<text text-anchor="middle" x="203.413" y="-590.3" font-family="Helvetica,sans-Serif" font-size="14.00" fill="#000000">2</text>
</g>
<!-- 1&#45;&gt;2 -->
<g id="edge1" class="edge"><title>1&#45;&gt;2</title>
<path fill="none" stroke="#000000" d="M165.602,-732C183.414,-732 203.413,-732 203.413,-732 203.413,-732 203.413,-649.448 203.413,-612.041"/>
</g>
<!-- 12 -->
<g id="node11" class="node"><title>12</title>
<polygon fill="#fb8072" stroke="#000000" points="155.54,-684 121.286,-684 109.087,-648 167.739,-648 155.54,-684"/>
<text text-anchor="middle" x="138.413" y="-662.3" font-family="Helvetica,sans-Serif" font-size="14.00" fill="#000000">12</text>
</g>
<!-- 1&#45;&gt;12 -->
<g id="edge3" class="edge"><title>1&#45;&gt;12</title>
<path fill="none" stroke="#000000" d="M138.413,-719.831C138.413,-709 138.413,-695.288 138.413,-684.413"/>
</g>
<!-- 13 -->
<g id="node12" class="node"><title>13</title>
<polygon fill="#ffffb3" stroke="#000000" points="78.5401,-684 44.286,-684 32.0867,-648 90.7394,-648 78.5401,-684"/>
<text text-anchor="middle" x="61.413" y="-662.3" font-family="Helvetica,sans-Serif" font-size="14.00" fill="#000000">13</text>
</g>
<!-- 1&#45;&gt;13 -->
<g id="edge4" class="edge"><title>1&#45;&gt;13</title>
<path fill="none" stroke="#000000" d="M111.049,-732C88.9169,-732 61.413,-732 61.413,-732 61.413,-732 61.413,-703.576 61.413,-684.035"/>
</g>
<!-- 5 -->
<g id="node13" class="node"><title>5</title>
<polygon fill="#bebada" stroke="#000000" points="175.413,-468 121.413,-468 121.413,-432 175.413,-432 175.413,-468"/>
<text text-anchor="middle" x="148.413" y="-446.3" font-family="Helvetica,sans-Serif" font-size="14.00" fill="#000000">5</text>
</g>
<!-- 2&#45;&gt;5 -->
<g id="edge6" class="edge"><title>2&#45;&gt;5</title>
<path fill="none" stroke="#000000" d="M181.679,-594C176.091,-594 171.62,-594 171.62,-594 171.62,-594 171.62,-506.986 171.62,-468.238"/>
</g>
<!-- 3 -->
<g id="node14" class="node"><title>3</title>
<polygon fill="#fb8072" stroke="#000000" points="158.413,-612 104.413,-612 104.413,-576 158.413,-576 158.413,-612"/>
<text text-anchor="middle" x="131.413" y="-590.3" font-family="Helvetica,sans-Serif" font-size="14.00" fill="#000000">3</text>
</g>
<!-- 12&#45;&gt;3 -->
<g id="edge17" class="edge"><title>12&#45;&gt;3</title>
<path fill="none" stroke="#000000" d="M133.707,-647.831C133.707,-637 133.707,-623.288 133.707,-612.413"/>
</g>
<!-- 4 -->
<g id="node16" class="node"><title>4</title>
<polygon fill="#8dd3c7" stroke="#000000" points="86.413,-612 32.413,-612 32.413,-576 86.413,-576 86.413,-612"/>
<text text-anchor="middle" x="59.413" y="-590.3" font-family="Helvetica,sans-Serif" font-size="14.00" fill="#000000">4</text>
</g>
<!-- 13&#45;&gt;4 -->
<g id="edge18" class="edge"><title>13&#45;&gt;4</title>
<path fill="none" stroke="#000000" d="M59.413,-647.831C59.413,-637 59.413,-623.288 59.413,-612.413"/>
</g>
<!-- 6 -->
<g id="node17" class="node"><title>6</title>
<polygon fill="#ffffb3" stroke="#000000" points="164.181,-396 132.645,-396 121.413,-360 175.413,-360 164.181,-396"/>
<text text-anchor="middle" x="148.413" y="-374.3" font-family="Helvetica,sans-Serif" font-size="14.00" fill="#000000">6</text>
</g>
<!-- 5&#45;&gt;6 -->
<g id="edge9" class="edge"><title>5&#45;&gt;6</title>
<path fill="none" stroke="#000000" d="M148.413,-431.831C148.413,-421 148.413,-407.288 148.413,-396.413"/>
</g>
<!-- 17 -->
<g id="node15" class="node"><title>17</title>
<polygon fill="#ffffb3" stroke="#000000" points="148.54,-540 114.286,-540 102.087,-504 160.739,-504 148.54,-540"/>
<text text-anchor="middle" x="131.413" y="-518.3" font-family="Helvetica,sans-Serif" font-size="14.00" fill="#000000">17</text>
</g>
<!-- 3&#45;&gt;17 -->
<g id="edge7" class="edge"><title>3&#45;&gt;17</title>
<path fill="none" stroke="#000000" d="M131.413,-575.831C131.413,-565 131.413,-551.288 131.413,-540.413"/>
</g>
<!-- 17&#45;&gt;5 -->
<g id="edge22" class="edge"><title>17&#45;&gt;5</title>
<path fill="none" stroke="#000000" d="M141.12,-503.831C141.12,-493 141.12,-479.288 141.12,-468.413"/>
</g>
<!-- 4&#45;&gt;17 -->
<g id="edge8" class="edge"><title>4&#45;&gt;17</title>
<path fill="none" stroke="#000000" d="M72.413,-575.965C72.413,-556.424 72.413,-528 72.413,-528 72.413,-528 93.2128,-528 110.113,-528"/>
</g>
<!-- 6&#45;&gt;7 -->
<g id="edge10" class="edge"><title>6&#45;&gt;7</title>
<path fill="none" stroke="#000000" d="M131.913,-359.831C131.913,-349 131.913,-335.288 131.913,-324.413"/>
</g>
<!-- 6&#45;&gt;8 -->
<g id="edge11" class="edge"><title>6&#45;&gt;8</title>
<path fill="none" stroke="#000000" d="M170.413,-359.831C170.413,-349 170.413,-335.288 170.413,-324.413"/>
</g>
<!-- 18 -->
<g id="node19" class="node"><title>18</title>
<polygon fill="#bebada" stroke="#000000" points="170.54,-108 136.286,-108 124.087,-72 182.739,-72 170.54,-108"/>
<text text-anchor="middle" x="153.413" y="-86.3" font-family="Helvetica,sans-Serif" font-size="14.00" fill="#000000">18</text>
</g>
<!-- 9&#45;&gt;18 -->
<g id="edge14" class="edge"><title>9&#45;&gt;18</title>
<path fill="none" stroke="#000000" d="M153.413,-143.831C153.413,-133 153.413,-119.288 153.413,-108.413"/>
</g>
<!-- 18&#45;&gt;NATURAL&#45;GROUND -->
<g id="edge23" class="edge"><title>18&#45;&gt;NATURAL&#45;GROUND</title>
<path fill="none" stroke="#000000" d="M153.413,-71.8314C153.413,-61 153.413,-47.2876 153.413,-36.4133"/>
</g>
<!-- SEPARATED -->
<g id="node20" class="node"><title>SEPARATED</title>
<polygon fill="#bebada" stroke="#000000" points="346.913,-468 265.913,-468 265.913,-432 346.913,-432 346.913,-468"/>
<text text-anchor="middle" x="306.413" y="-446.3" font-family="Helvetica,sans-Serif" font-size="14.00" fill="#000000">Separated</text>
</g>
<!-- NOT&#45;REACHABLE -->
<g id="node21" class="node"><title>NOT&#45;REACHABLE</title>
<polygon fill="#fb8072" stroke="#000000" points="374.913,-396 265.913,-396 265.913,-360 374.913,-360 374.913,-396"/>
<text text-anchor="middle" x="320.413" y="-374.3" font-family="Helvetica,sans-Serif" font-size="14.00" fill="#000000">Not Reachable</text>
</g>
<!-- ORIGIN -->
<g id="node22" class="node"><title>ORIGIN</title>
<polygon fill="#8dd3c7" stroke="#000000" points="291.413,-324 237.413,-324 237.413,-288 291.413,-288 291.413,-324"/>
<text text-anchor="middle" x="264.413" y="-302.3" font-family="Helvetica,sans-Serif" font-size="14.00" fill="#000000">Origin</text>
</g>
<!-- ABUTTING -->
<g id="node23" class="node"><title>ABUTTING</title>
<polygon fill="#ffffb3" stroke="#000000" points="307.413,-252 239.413,-252 239.413,-216 307.413,-216 307.413,-252"/>
<text text-anchor="middle" x="273.413" y="-230.3" font-family="Helvetica,sans-Serif" font-size="14.00" fill="#000000">Abutting</text>
</g>
<!-- DEPOSIT -->
<g id="node24" class="node"><title>DEPOSIT</title>
<polygon fill="#ffffff" stroke="#000000" points="262.413,-180 198.413,-180 198.413,-144 262.413,-144 262.413,-180"/>
<text text-anchor="middle" x="230.413" y="-158.3" font-family="Helvetica,sans-Serif" font-size="14.00" fill="#000000">Deposit</text>
</g>
<!-- INTERFACE -->
<g id="node25" class="node"><title>INTERFACE</title>
<polygon fill="#ffffff" stroke="#000000" points="304.387,-108 228.44,-108 201.392,-72 331.434,-72 304.387,-108"/>
<text text-anchor="middle" x="266.413" y="-86.3" font-family="Helvetica,sans-Serif" font-size="14.00" fill="#000000">Interface</text>
</g>
</g>
</svg>
