<?xml version="1.0" encoding="UTF-8" standalone="no"?>
<!DOCTYPE svg PUBLIC "-//W3C//DTD SVG 1.1//EN"
 "http://www.w3.org/Graphics/SVG/1.1/DTD/svg11.dtd">
<!-- Generated by graphviz version 2.38.0 (20140413.2041)
 -->
<!-- Title: to_dot Pages: 1 -->
<svg width="233pt" height="571pt"
 viewBox="0.00 0.00 233.00 571.00" xmlns="http://www.w3.org/2000/svg" xmlns:xlink="http://www.w3.org/1999/xlink">
<g id="graph0" class="graph" transform="scale(1 1) rotate(0) translate(4 567)">
<title>to_dot</title>
<polygon fill="#ffffff" stroke="none" points="-4,4 -4,-567 229,-567 229,4 -4,4"/>
<text text-anchor="middle" x="112.5" y="-547.8" font-family="Helvetica,sans-Serif" font-size="14.00" fill="#000000">Hypothetical Chronological Model</text>
<!-- alpha&#45;9 -->
<g id="node1" class="node"><title>alpha&#45;9</title>
<polygon fill="#ffffff" stroke="#000000" points="104.75,-36 41.75,-36 41.75,-0 104.75,-0 104.75,-36"/>
<text text-anchor="middle" x="73.25" y="-14.3" font-family="Helvetica,sans-Serif" font-size="14.00" fill="#000000">alpha&#45;9</text>
</g>
<!-- beta&#45;9 -->
<g id="node2" class="node"><title>beta&#45;9</title>
<polygon fill="#ffffff" stroke="#000000" points="101.25,-180 45.25,-180 45.25,-144 101.25,-144 101.25,-180"/>
<text text-anchor="middle" x="73.25" y="-158.3" font-family="Helvetica,sans-Serif" font-size="14.00" fill="#000000">beta&#45;9</text>
</g>
<!-- theta&#45;1 -->
<g id="node3" class="node"><title>theta&#45;1</title>
<polygon fill="#ffffff" stroke="#000000" points="103.25,-108 43.25,-108 43.25,-72 103.25,-72 103.25,-108"/>
<text text-anchor="middle" x="73.25" y="-86.3" font-family="Helvetica,sans-Serif" font-size="14.00" fill="#000000">theta&#45;1</text>
</g>
<!-- beta&#45;9&#45;&gt;theta&#45;1 -->
<g id="edge1" class="edge"><title>beta&#45;9&#45;&gt;theta&#45;1</title>
<path fill="none" stroke="#000000" d="M73.25,-143.831C73.25,-133 73.25,-119.288 73.25,-108.413"/>
</g>
<!-- theta&#45;1&#45;&gt;alpha&#45;9 -->
<g id="edge2" class="edge"><title>theta&#45;1&#45;&gt;alpha&#45;9</title>
<path fill="none" stroke="#000000" d="M73.25,-71.8314C73.25,-61 73.25,-47.2876 73.25,-36.4133"/>
</g>
<!-- alpha&#45;7 -->
<g id="node4" class="node"><title>alpha&#45;7</title>
<polygon fill="#ffffff" stroke="#000000" points="186.75,-396 123.75,-396 123.75,-360 186.75,-360 186.75,-396"/>
<text text-anchor="middle" x="155.25" y="-374.3" font-family="Helvetica,sans-Serif" font-size="14.00" fill="#000000">alpha&#45;7</text>
</g>
<!-- beta&#45;15 -->
<g id="node5" class="node"><title>beta&#45;15</title>
<polygon fill="#ffffff" stroke="#000000" points="187.25,-324 123.25,-324 123.25,-288 187.25,-288 187.25,-324"/>
<text text-anchor="middle" x="155.25" y="-302.3" font-family="Helvetica,sans-Serif" font-size="14.00" fill="#000000">beta&#45;15</text>
</g>
<!-- alpha&#45;7&#45;&gt;beta&#45;15 -->
<g id="edge3" class="edge"><title>alpha&#45;7&#45;&gt;beta&#45;15</title>
<path fill="none" stroke="#000000" stroke-dasharray="5,2" d="M155.25,-359.831C155.25,-349 155.25,-335.288 155.25,-324.413"/>
</g>
<!-- alpha&#45;15 -->
<g id="node8" class="node"><title>alpha&#45;15</title>
<polygon fill="#ffffff" stroke="#000000" points="108.75,-252 37.75,-252 37.75,-216 108.75,-216 108.75,-252"/>
<text text-anchor="middle" x="73.25" y="-230.3" font-family="Helvetica,sans-Serif" font-size="14.00" fill="#000000">alpha&#45;15</text>
</g>
<!-- beta&#45;15&#45;&gt;alpha&#45;15 -->
<g id="edge7" class="edge"><title>beta&#45;15&#45;&gt;alpha&#45;15</title>
<path fill="none" stroke="#000000" stroke-dasharray="1,5" d="M123.199,-306C118.935,-306 116,-306 116,-306 116,-306 116,-234 116,-234 116,-234 113.159,-234 108.941,-234"/>
</g>
<!-- theta&#45;3 -->
<g id="node9" class="node"><title>theta&#45;3</title>
<polygon fill="#ffffff" stroke="#000000" points="187.25,-252 127.25,-252 127.25,-216 187.25,-216 187.25,-252"/>
<text text-anchor="middle" x="157.25" y="-230.3" font-family="Helvetica,sans-Serif" font-size="14.00" fill="#000000">theta&#45;3</text>
</g>
<!-- beta&#45;15&#45;&gt;theta&#45;3 -->
<g id="edge8" class="edge"><title>beta&#45;15&#45;&gt;theta&#45;3</title>
<path fill="none" stroke="#000000" d="M157.25,-287.831C157.25,-277 157.25,-263.288 157.25,-252.413"/>
</g>
<!-- beta&#45;7 -->
<g id="node6" class="node"><title>beta&#45;7</title>
<polygon fill="#ffffff" stroke="#000000" points="183.25,-540 127.25,-540 127.25,-504 183.25,-504 183.25,-540"/>
<text text-anchor="middle" x="155.25" y="-518.3" font-family="Helvetica,sans-Serif" font-size="14.00" fill="#000000">beta&#45;7</text>
</g>
<!-- theta&#45;2 -->
<g id="node7" class="node"><title>theta&#45;2</title>
<polygon fill="#ffffff" stroke="#000000" points="185.25,-468 125.25,-468 125.25,-432 185.25,-432 185.25,-468"/>
<text text-anchor="middle" x="155.25" y="-446.3" font-family="Helvetica,sans-Serif" font-size="14.00" fill="#000000">theta&#45;2</text>
</g>
<!-- beta&#45;7&#45;&gt;theta&#45;2 -->
<g id="edge4" class="edge"><title>beta&#45;7&#45;&gt;theta&#45;2</title>
<path fill="none" stroke="#000000" d="M155.25,-503.831C155.25,-493 155.25,-479.288 155.25,-468.413"/>
</g>
<!-- theta&#45;2&#45;&gt;alpha&#45;7 -->
<g id="edge5" class="edge"><title>theta&#45;2&#45;&gt;alpha&#45;7</title>
<path fill="none" stroke="#000000" d="M155.25,-431.831C155.25,-421 155.25,-407.288 155.25,-396.413"/>
</g>
<!-- alpha&#45;15&#45;&gt;beta&#45;9 -->
<g id="edge6" class="edge"><title>alpha&#45;15&#45;&gt;beta&#45;9</title>
<path fill="none" stroke="#000000" stroke-dasharray="5,2" d="M73.25,-215.831C73.25,-205 73.25,-191.288 73.25,-180.413"/>
</g>
<!-- theta&#45;4 -->
<g id="node10" class="node"><title>theta&#45;4</title>
<polygon fill="#ffffff" stroke="#000000" points="103.25,-324 43.25,-324 43.25,-288 103.25,-288 103.25,-324"/>
<text text-anchor="middle" x="73.25" y="-302.3" font-family="Helvetica,sans-Serif" font-size="14.00" fill="#000000">theta&#45;4</text>
</g>
<!-- theta&#45;4&#45;&gt;alpha&#45;15 -->
<g id="edge9" class="edge"><title>theta&#45;4&#45;&gt;alpha&#45;15</title>
<path fill="none" stroke="#000000" d="M73.25,-287.831C73.25,-277 73.25,-263.288 73.25,-252.413"/>
</g>
</g>
</svg>
