<?xml version="1.0" encoding="UTF-8" standalone="no"?>
<!DOCTYPE svg PUBLIC "-//W3C//DTD SVG 1.1//EN"
 "http://www.w3.org/Graphics/SVG/1.1/DTD/svg11.dtd">
<!-- Generated by graphviz version 2.38.0 (20140413.2041)
 -->
<!-- Title: to_dot Pages: 1 -->
<svg width="956pt" height="211pt"
 viewBox="0.00 0.00 956.26 211.00" xmlns="http://www.w3.org/2000/svg" xmlns:xlink="http://www.w3.org/1999/xlink">
<g id="graph0" class="graph" transform="scale(1 1) rotate(0) translate(4 207)">
<title>to_dot</title>
<g id="a_graph0"><a xlink:href="http://tsdye.github.io/harris-matrix/" xlink:title="Complex H&#45;structure">
<polygon fill="#b3b3b3" stroke="#000000" points="-4,4 -4,-207 952.26,-207 952.26,4 -4,4"/>
<text text-anchor="middle" x="474.13" y="-187.8" font-family="Helvetica,sans-Serif" font-size="14.00" fill="#000000">Complex H&#45;structure</text>
</a>
</g>
<!-- 9 -->
<g id="node1" class="node"><title>9</title>
<g id="a_node1"><a xlink:href="http://tsdye.github.io/harris-matrix/" xlink:title="9">
<polygon fill="#e5f5e0" stroke="#000000" points="54,-36 0,-36 0,-0 54,-0 54,-36"/>
<text text-anchor="middle" x="27" y="-14.3" font-family="Helvetica,sans-Serif" font-size="14.00" fill="#000000">9</text>
</a>
</g>
</g>
<!-- 8 -->
<g id="node2" class="node"><title>8</title>
<g id="a_node2"><a xlink:href="http://tsdye.github.io/harris-matrix/" xlink:title="8">
<polygon fill="#31a354" stroke="#000000" points="130,-36 76,-36 76,-0 130,-0 130,-36"/>
<text text-anchor="middle" x="103" y="-14.3" font-family="Helvetica,sans-Serif" font-size="14.00" fill="#000000">8</text>
</a>
</g>
</g>
<!-- 7 -->
<g id="node3" class="node"><title>7</title>
<g id="a_node3"><a xlink:href="http://tsdye.github.io/harris-matrix/" xlink:title="7">
<polygon fill="#31a354" stroke="#000000" points="206,-36 152,-36 152,-0 206,-0 206,-36"/>
<text text-anchor="middle" x="179" y="-14.3" font-family="Helvetica,sans-Serif" font-size="14.00" fill="#000000">7</text>
</a>
</g>
</g>
<!-- 6 -->
<g id="node4" class="node"><title>6</title>
<g id="a_node4"><a xlink:href="http://tsdye.github.io/harris-matrix/" xlink:title="6">
<polygon fill="#31a354" stroke="#000000" points="423,-36 369,-36 369,-0 423,-0 423,-36"/>
<text text-anchor="middle" x="396" y="-14.3" font-family="Helvetica,sans-Serif" font-size="14.00" fill="#000000">6</text>
</a>
</g>
</g>
<!-- 5 -->
<g id="node5" class="node"><title>5</title>
<g id="a_node5"><a xlink:href="http://tsdye.github.io/harris-matrix/" xlink:title="5">
<polygon fill="#31a354" stroke="#000000" points="341,-36 287,-36 287,-0 341,-0 341,-36"/>
<text text-anchor="middle" x="314" y="-14.3" font-family="Helvetica,sans-Serif" font-size="14.00" fill="#000000">5</text>
</a>
</g>
</g>
<!-- 4 -->
<g id="node6" class="node"><title>4</title>
<g id="a_node6"><a xlink:href="http://tsdye.github.io/harris-matrix/" xlink:title="4">
<polygon fill="#e5f5e0" stroke="#000000" points="92,-180 38,-180 38,-144 92,-144 92,-180"/>
<text text-anchor="middle" x="65" y="-158.3" font-family="Helvetica,sans-Serif" font-size="14.00" fill="#000000">4</text>
</a>
</g>
</g>
<!-- 4&#45;&gt;9 -->
<g id="edge11" class="edge"><title>4&#45;&gt;9</title>
<g id="a_edge11"><a xlink:href="nil">
<path fill="none" stroke="#000000" d="M46,-143.762C46,-116.063 46,-63.7005 46,-36.0896"/>
</a>
</g>
</g>
<!-- 4&#45;&gt;8 -->
<g id="edge10" class="edge"><title>4&#45;&gt;8</title>
<g id="a_edge10"><a xlink:href="nil">
<path fill="none" stroke="#000000" d="M86.6667,-143.762C86.6667,-116.063 86.6667,-63.7005 86.6667,-36.0896"/>
</a>
</g>
</g>
<!-- 4&#45;&gt;7 -->
<g id="edge9" class="edge"><title>4&#45;&gt;7</title>
<g id="a_edge9"><a xlink:href="nil">
<path fill="none" stroke="#000000" d="M81.3333,-143.956C81.3333,-131.437 81.3333,-117 81.3333,-117 81.3333,-117 163,-117 163,-117 163,-117 163,-64.7386 163,-36.1581"/>
</a>
</g>
</g>
<!-- 3 -->
<g id="node7" class="node"><title>3</title>
<g id="a_node7"><a xlink:href="http://tsdye.github.io/harris-matrix/" xlink:title="3">
<polygon fill="#e5f5e0" stroke="#000000" points="185,-180 131,-180 131,-144 185,-144 185,-180"/>
<text text-anchor="middle" x="158" y="-158.3" font-family="Helvetica,sans-Serif" font-size="14.00" fill="#000000">3</text>
</a>
</g>
</g>
<!-- 3&#45;&gt;8 -->
<g id="edge8" class="edge"><title>3&#45;&gt;8</title>
<g id="a_edge8"><a xlink:href="nil">
<path fill="none" stroke="#000000" d="M141.5,-143.762C141.5,-105.014 141.5,-18 141.5,-18 141.5,-18 136.528,-18 130.157,-18"/>
</a>
</g>
</g>
<!-- 3&#45;&gt;7 -->
<g id="edge7" class="edge"><title>3&#45;&gt;7</title>
<g id="a_edge7"><a xlink:href="nil">
<path fill="none" stroke="#000000" d="M174,-143.762C174,-116.063 174,-63.7005 174,-36.0896"/>
</a>
</g>
</g>
<!-- 2 -->
<g id="node8" class="node"><title>2</title>
<g id="a_node8"><a xlink:href="http://tsdye.github.io/harris-matrix/" xlink:title="2">
<polygon fill="#a1d99b" stroke="#000000" points="301,-180 247,-180 247,-144 301,-144 301,-180"/>
<text text-anchor="middle" x="274" y="-158.3" font-family="Helvetica,sans-Serif" font-size="14.00" fill="#000000">2</text>
</a>
</g>
</g>
<!-- 2&#45;&gt;8 -->
<g id="edge6" class="edge"><title>2&#45;&gt;8</title>
<g id="a_edge6"><a xlink:href="nil">
<path fill="none" stroke="#000000" d="M267,-143.841C267,-138.957 267,-135 267,-135 267,-135 111,-135 111,-135 111,-135 111,-68.8443 111,-36.0248"/>
</a>
</g>
</g>
<!-- 2&#45;&gt;7 -->
<g id="edge5" class="edge"><title>2&#45;&gt;7</title>
<g id="a_edge5"><a xlink:href="nil">
<path fill="none" stroke="#000000" d="M246.985,-162C224.278,-162 195.5,-162 195.5,-162 195.5,-162 195.5,-74.9861 195.5,-36.2377"/>
</a>
</g>
</g>
<!-- 2&#45;&gt;6 -->
<g id="edge4" class="edge"><title>2&#45;&gt;6</title>
<g id="a_edge4"><a xlink:href="nil">
<path fill="none" stroke="#000000" d="M291.667,-143.578C291.667,-134.721 291.667,-126 291.667,-126 291.667,-126 384.333,-126 384.333,-126 384.333,-126 384.333,-67.1336 384.333,-36.3207"/>
</a>
</g>
</g>
<!-- 2&#45;&gt;5 -->
<g id="edge3" class="edge"><title>2&#45;&gt;5</title>
<g id="a_edge3"><a xlink:href="nil">
<path fill="none" stroke="#000000" d="M296.333,-143.762C296.333,-116.063 296.333,-63.7005 296.333,-36.0896"/>
</a>
</g>
</g>
<!-- 1 -->
<g id="node9" class="node"><title>1</title>
<g id="a_node9"><a xlink:href="http://tsdye.github.io/harris-matrix/" xlink:title="1">
<polygon fill="#e5f5e0" stroke="#000000" points="415,-180 361,-180 361,-144 415,-144 415,-180"/>
<text text-anchor="middle" x="388" y="-158.3" font-family="Helvetica,sans-Serif" font-size="14.00" fill="#000000">1</text>
</a>
</g>
</g>
<!-- 1&#45;&gt;6 -->
<g id="edge2" class="edge"><title>1&#45;&gt;6</title>
<g id="a_edge2"><a xlink:href="nil">
<path fill="none" stroke="#000000" d="M399.667,-143.762C399.667,-116.063 399.667,-63.7005 399.667,-36.0896"/>
</a>
</g>
</g>
<!-- 1&#45;&gt;5 -->
<g id="edge1" class="edge"><title>1&#45;&gt;5</title>
<g id="a_edge1"><a xlink:href="nil">
<path fill="none" stroke="#000000" d="M365,-143.762C365,-105.014 365,-18 365,-18 365,-18 353.417,-18 341.292,-18"/>
</a>
</g>
</g>
<!-- REACHABLE -->
<g id="node10" class="node"><title>REACHABLE</title>
<g id="a_node10"><a xlink:href="http://tsdye.github.io/harris-matrix/" xlink:title="Reachable">
<polygon fill="#31a354" stroke="#000000" points="518.5,-108 435.5,-108 435.5,-72 518.5,-72 518.5,-108"/>
<text text-anchor="middle" x="477" y="-86.3" font-family="Helvetica,sans-Serif" font-size="14.00" fill="#000000">Reachable</text>
</a>
</g>
</g>
<!-- NOT&#45;REACHABLE -->
<g id="node11" class="node"><title>NOT&#45;REACHABLE</title>
<g id="a_node11"><a xlink:href="http://tsdye.github.io/harris-matrix/" xlink:title="Not Reachable">
<polygon fill="#e5f5e0" stroke="#000000" points="645.5,-108 536.5,-108 536.5,-72 645.5,-72 645.5,-108"/>
<text text-anchor="middle" x="591" y="-86.3" font-family="Helvetica,sans-Serif" font-size="14.00" fill="#000000">Not Reachable</text>
</a>
</g>
</g>
<!-- ORIGIN -->
<g id="node12" class="node"><title>ORIGIN</title>
<g id="a_node12"><a xlink:href="http://tsdye.github.io/harris-matrix/" xlink:title="Origin">
<polygon fill="#a1d99b" stroke="#000000" points="718,-108 664,-108 664,-72 718,-72 718,-108"/>
<text text-anchor="middle" x="691" y="-86.3" font-family="Helvetica,sans-Serif" font-size="14.00" fill="#000000">Origin</text>
</a>
</g>
</g>
<!-- DEPOSIT -->
<g id="node13" class="node"><title>DEPOSIT</title>
<g id="a_node13"><a xlink:href="http://tsdye.github.io/harris-matrix/" xlink:title="Deposit">
<polygon fill="#ffffff" stroke="#000000" points="800,-108 736,-108 736,-72 800,-72 800,-108"/>
<text text-anchor="middle" x="768" y="-86.3" font-family="Helvetica,sans-Serif" font-size="14.00" fill="#000000">Deposit</text>
</a>
</g>
</g>
<!-- INTERFACE -->
<g id="node14" class="node"><title>INTERFACE</title>
<g id="a_node14"><a xlink:href="http://tsdye.github.io/harris-matrix/" xlink:title="Interface">
<polygon fill="#ffffff" stroke="#000000" points="920.973,-108 845.027,-108 817.979,-72 948.021,-72 920.973,-108"/>
<text text-anchor="middle" x="883" y="-86.3" font-family="Helvetica,sans-Serif" font-size="14.00" fill="#000000">Interface</text>
</a>
</g>
</g>
</g>
</svg>
