<?xml version="1.0" encoding="UTF-8" standalone="no"?>
<!DOCTYPE svg PUBLIC "-//W3C//DTD SVG 1.1//EN"
 "http://www.w3.org/Graphics/SVG/1.1/DTD/svg11.dtd">
<!-- Generated by graphviz version 2.38.0 (20140413.2041)
 -->
<!-- Title: to_dot Pages: 1 -->
<svg width="218pt" height="211pt"
 viewBox="0.00 0.00 218.00 211.00" xmlns="http://www.w3.org/2000/svg" xmlns:xlink="http://www.w3.org/1999/xlink">
<g id="graph0" class="graph" transform="scale(1 1) rotate(0) translate(4 207)">
<title>to_dot</title>
<g id="a_graph0"><a xlink:href="http://tsdye.github.io/harris-matrix/" xlink:title="Roskams&#39; Complex H&#45;structure">
<text text-anchor="middle" x="105" y="-187.8" font-family="Helvetica,sans-Serif" font-size="14.00" fill="#000000">Roskams&#39; Complex H&#45;structure</text>
</a>
</g>
<!-- 1 -->
<g id="node1" class="node"><title>1</title>
<ellipse fill="#ffffff" stroke="#000000" cx="141" cy="-162" rx="27" ry="18"/>
<text text-anchor="middle" x="141" y="-158.3" font-family="Helvetica,sans-Serif" font-size="14.00" fill="#000000">1</text>
</g>
<!-- 3 -->
<g id="node2" class="node"><title>3</title>
<ellipse fill="#ffffff" stroke="#000000" cx="69" cy="-90" rx="27" ry="18"/>
<text text-anchor="middle" x="69" y="-86.3" font-family="Helvetica,sans-Serif" font-size="14.00" fill="#000000">3</text>
</g>
<!-- 1&#45;&gt;3 -->
<g id="edge1" class="edge"><title>1&#45;&gt;3</title>
<path fill="none" stroke="#000000" d="M113.715,-162C108.694,-162 105,-162 105,-162 105,-162 105,-90 105,-90 105,-90 101.306,-90 96.2854,-90"/>
</g>
<!-- 4 -->
<g id="node3" class="node"><title>4</title>
<ellipse fill="#ffffff" stroke="#000000" cx="141" cy="-90" rx="27" ry="18"/>
<text text-anchor="middle" x="141" y="-86.3" font-family="Helvetica,sans-Serif" font-size="14.00" fill="#000000">4</text>
</g>
<!-- 1&#45;&gt;4 -->
<g id="edge2" class="edge"><title>1&#45;&gt;4</title>
<path fill="none" stroke="#000000" d="M141,-143.831C141,-133 141,-119.288 141,-108.413"/>
</g>
<!-- 5 -->
<g id="node5" class="node"><title>5</title>
<ellipse fill="#ffffff" stroke="#000000" cx="105" cy="-18" rx="27" ry="18"/>
<text text-anchor="middle" x="105" y="-14.3" font-family="Helvetica,sans-Serif" font-size="14.00" fill="#000000">5</text>
</g>
<!-- 3&#45;&gt;5 -->
<g id="edge4" class="edge"><title>3&#45;&gt;5</title>
<path fill="none" stroke="#000000" d="M87,-76.4574C87,-63.5849 87,-44.3343 87,-31.4819"/>
</g>
<!-- 4&#45;&gt;5 -->
<g id="edge5" class="edge"><title>4&#45;&gt;5</title>
<path fill="none" stroke="#000000" d="M123,-76.4574C123,-63.5849 123,-44.3343 123,-31.4819"/>
</g>
<!-- 2 -->
<g id="node4" class="node"><title>2</title>
<ellipse fill="#ffffff" stroke="#000000" cx="69" cy="-162" rx="27" ry="18"/>
<text text-anchor="middle" x="69" y="-158.3" font-family="Helvetica,sans-Serif" font-size="14.00" fill="#000000">2</text>
</g>
<!-- 2&#45;&gt;3 -->
<g id="edge3" class="edge"><title>2&#45;&gt;3</title>
<path fill="none" stroke="#000000" d="M69,-143.831C69,-133 69,-119.288 69,-108.413"/>
</g>
</g>
</svg>
